<svg xmlns="http://www.w3.org/2000/svg" width="81" height="32" viewBox="0 0 81 32" fill="none"><path d="M12.9223 32L14.1812 29.6967C14.205 29.657 14.2249 29.6093 14.2288 29.5577C14.2408 29.4028 14.1296 29.2638 13.9787 29.24C11.4133 28.8548 9.02656 27.731 7.08066 25.9955C7.02507 25.9439 6.95358 25.9201 6.8821 25.9201C6.80665 25.9201 6.7312 25.9479 6.67163 26.0074L2.52569 30.1494L1.84661 29.4703L5.98858 25.3284C6.09977 25.2172 6.10375 25.0385 6.00049 24.9193C4.26111 22.9734 3.13328 20.5867 2.74808 18.0174C2.73219 17.9221 2.67262 17.8387 2.58526 17.795C2.54554 17.7751 2.49789 17.7632 2.45421 17.7632C2.40655 17.7632 2.35493 17.7751 2.31124 17.799L0 19.0697V12.9183L2.31521 14.1772C2.3589 14.201 2.41052 14.2129 2.45818 14.2129C2.50186 14.2129 2.54952 14.201 2.58923 14.1812C2.67659 14.1375 2.73616 14.0541 2.75205 13.9588C3.62571 8.22835 8.24423 3.62174 13.9787 2.75602C14.1335 2.73219 14.2447 2.5932 14.2328 2.43833C14.2288 2.38273 14.209 2.33111 14.1812 2.29139L12.9263 0H19.0777L17.8268 2.29535C17.799 2.33506 17.7791 2.3867 17.7751 2.43833C17.7632 2.5932 17.8704 2.73219 18.0253 2.75602C19.9474 3.04989 21.8059 3.76868 23.4301 4.84885L21.5557 6.72325C20.5073 6.94564 19.3199 7.40234 18.1127 8.04965C16.1708 9.0901 14.1891 10.5912 12.3902 12.3902C11.6912 13.0851 11.036 13.8119 10.4363 14.5545C10.2378 14.2686 10.0551 13.9786 9.88036 13.6967C10.4482 13.0097 11.0598 12.3385 11.6992 11.7031C12.6761 10.7262 13.7126 9.82874 14.7769 9.0345C14.8563 8.97493 14.9 8.87961 14.896 8.78033C14.892 8.68105 14.8364 8.58972 14.753 8.5381C14.4671 8.36336 14.1772 8.20055 13.8913 8.04965C13.236 7.70018 10.9566 6.55647 9.04244 6.55647C8.23231 6.55647 7.60883 6.7709 7.18789 7.18788C6.36585 8.00992 6.34599 9.72151 7.13626 11.8858C7.98213 14.1931 9.65003 16.7347 11.8382 19.0459C11.8938 19.1055 11.9692 19.1373 12.0486 19.1373H12.0526C12.132 19.1373 12.2075 19.1055 12.2631 19.0499L13.8357 17.4773C13.927 17.386 13.9509 17.243 13.8873 17.1278C13.7046 16.7823 13.6054 16.3931 13.6054 16.004C13.6054 14.6855 14.6776 13.6133 15.996 13.6133C16.3892 13.6133 16.7784 13.7086 17.1199 13.8953C17.1636 13.9191 17.2112 13.931 17.2589 13.931C17.3343 13.931 17.4137 13.8992 17.4693 13.8436L19.0459 12.271C19.1015 12.2154 19.1333 12.136 19.1333 12.0566C19.1333 11.9772 19.0975 11.8977 19.0419 11.8461C18.5257 11.3577 17.9935 10.893 17.4574 10.4562C17.7473 10.2656 18.0412 10.0829 18.3351 9.91214C18.8116 10.3093 19.2842 10.7302 19.7448 11.1631C19.8004 11.2187 19.8759 11.2465 19.9513 11.2465C20.0268 11.2465 20.1023 11.2187 20.1618 11.1591L26.893 4.43186C26.9486 4.37626 26.9804 4.30082 26.9804 4.2214C26.9804 4.14197 26.9486 4.06651 26.893 4.01091L25.3681 2.48598L31.4003 1.28667L26.0114 6.6756C25.9002 6.78679 25.8962 6.96551 25.9995 7.08465C27.7309 9.02657 28.8548 11.4013 29.244 13.9588C29.2599 14.0541 29.3194 14.1415 29.4068 14.1851C29.4505 14.209 29.4981 14.2169 29.5458 14.2169C29.5934 14.2169 29.6371 14.205 29.6808 14.1812L31.992 12.9104V19.0578L29.6808 17.7791C29.6371 17.7553 29.5855 17.7434 29.5378 17.7434C29.4544 17.7434 29.3711 17.7791 29.3155 17.8426C29.2757 17.8903 29.2519 17.9459 29.244 18.0055C29.2321 18.1127 27.9613 27.5641 17.9975 29.2321C17.8426 29.2559 17.7354 29.3949 17.7513 29.5497C17.7592 29.6371 17.8029 29.7126 17.8665 29.7602L19.0777 31.9881H12.9223V32ZM13.9231 25.0782C13.8794 25.0782 13.8317 25.0901 13.792 25.1099C12.4537 25.7692 11.2028 26.1861 10.071 26.349C9.9439 26.3688 9.84462 26.4641 9.8208 26.5912C9.79697 26.7183 9.85654 26.8454 9.96773 26.9049C11.8024 27.9216 13.8873 28.4577 15.996 28.4577C18.1047 28.4577 20.1896 27.9216 22.0243 26.9049C22.1355 26.8414 22.1951 26.7183 22.1713 26.5912C22.1474 26.4641 22.0481 26.3688 21.9211 26.349C20.7893 26.1861 19.5383 25.7692 18.2 25.1099C18.1603 25.0901 18.1127 25.0782 18.069 25.0782C18.0134 25.0782 17.9578 25.0941 17.9101 25.1219C17.8228 25.1775 17.7712 25.2728 17.7712 25.376V26.7779C17.1874 26.8732 16.5917 26.9208 15.996 26.9208C15.4003 26.9208 14.8007 26.8732 14.213 26.7739V25.3721C14.213 25.2688 14.1613 25.1735 14.074 25.1179C14.0263 25.0861 13.9707 25.0742 13.9151 25.0742L13.9231 25.0782ZM14.7292 18.0809C14.6538 18.0809 14.5743 18.1127 14.5187 18.1683L12.9461 19.7409C12.8905 19.7965 12.8588 19.8759 12.8588 19.9553C12.8588 20.0347 12.8945 20.1142 12.9541 20.1658C16.3495 23.3745 20.2611 25.4475 22.9218 25.4475C23.6327 25.4475 24.2005 25.2966 24.6135 24.9988C24.6255 24.9908 24.6374 24.9829 24.6453 24.971C24.7605 24.8598 24.8756 24.7446 24.9868 24.6255C24.9948 24.6175 25.0027 24.6056 25.0107 24.5977C26.3847 22.755 24.3872 18.8593 23.4659 17.2748C23.4142 17.1874 23.3269 17.1318 23.2236 17.1278C23.2197 17.1278 23.2117 17.1278 23.2077 17.1278C23.1124 17.1278 23.0251 17.1715 22.9695 17.247C22.1792 18.3033 21.2857 19.3358 20.3048 20.3127C19.6614 20.9561 18.9903 21.5637 18.3073 22.1315C18.0213 21.9568 17.7354 21.7702 17.4455 21.5756C18.1881 20.972 18.9188 20.3167 19.6138 19.6217C22.0799 17.1556 23.9464 14.4115 24.8677 11.8977C25.4396 10.3291 25.5944 8.9511 25.2926 8.01389C25.2609 7.91461 25.1814 7.83916 25.0782 7.81533C25.0543 7.81136 25.0305 7.80738 25.0067 7.80738C24.9273 7.80738 24.8518 7.83917 24.7962 7.89476L20.8409 11.8461C20.7257 11.9613 20.7257 12.144 20.8369 12.2631C21.2738 12.7238 21.6947 13.1963 22.0918 13.6729C21.9211 13.9667 21.7384 14.2566 21.5478 14.5465C21.1109 14.0104 20.6423 13.4783 20.1539 12.962C20.0983 12.9025 20.0228 12.8707 19.9434 12.8707H19.9394C19.86 12.8707 19.7846 12.9025 19.729 12.9581L18.1564 14.5307C18.065 14.622 18.0412 14.7649 18.1047 14.8841C18.2914 15.2296 18.3867 15.6188 18.3867 16.0119C18.3867 17.3304 17.3145 18.4026 15.996 18.4026C15.6029 18.4026 15.2097 18.3033 14.8642 18.1206C14.8205 18.0968 14.7729 18.0849 14.7252 18.0849L14.7292 18.0809ZM12.0447 20.7654C11.9692 20.7654 11.8938 20.7932 11.8342 20.8528L7.87888 24.8042C7.80739 24.8757 7.77562 24.9829 7.79945 25.0861C7.82328 25.1854 7.89873 25.2688 7.99801 25.3006C8.30777 25.3999 8.67312 25.4515 9.08215 25.4515C10.3927 25.4515 12.1003 24.9233 13.8873 23.9662C14.1613 23.8193 14.4512 23.6565 14.7491 23.4738C14.8325 23.4222 14.8881 23.3308 14.892 23.2316C14.896 23.1323 14.8523 23.037 14.7729 22.9774C13.9111 22.3341 13.0613 21.6153 12.2472 20.8449C12.1916 20.7893 12.1162 20.7615 12.0407 20.7615L12.0447 20.7654ZM8.7724 17.1159C8.67312 17.1199 8.58178 17.1755 8.53015 17.2589C7.94242 18.2358 7.46984 19.2008 7.13229 20.1261C6.56043 21.6907 6.40953 23.0648 6.7034 24.002C6.73517 24.1013 6.81459 24.1767 6.91784 24.2005C6.94167 24.2045 6.9655 24.2085 6.98933 24.2085C7.06875 24.2085 7.1442 24.1767 7.1998 24.1211L11.1512 20.1737C11.2663 20.0586 11.2663 19.8759 11.1551 19.7568C10.3847 18.9427 9.66592 18.0968 9.02258 17.2351C8.96699 17.1596 8.87565 17.1159 8.78431 17.1159C8.78034 17.1159 8.77637 17.1159 8.76843 17.1159H8.7724ZM5.36113 9.80889C5.25391 9.80889 5.15463 9.86449 5.09903 9.96377C4.07843 11.8024 3.53437 13.8913 3.53437 16.004C3.53437 18.1166 4.07446 20.2095 5.09903 22.0482C5.15066 22.1435 5.25391 22.203 5.35716 22.203C5.37304 22.203 5.3929 22.203 5.41276 22.1991C5.53983 22.1752 5.63514 22.076 5.655 21.9489C5.81782 20.8131 6.2348 19.5582 6.89799 18.2199C6.94167 18.1286 6.9377 18.0174 6.8821 17.93C6.82651 17.8426 6.7312 17.791 6.62795 17.791H5.21022C5.11492 17.2033 5.06329 16.6036 5.06329 16.0079C5.06329 15.4123 5.11094 14.8205 5.20625 14.2368H6.62397C6.72723 14.2368 6.82253 14.1852 6.87813 14.0978C6.93373 14.0104 6.9377 13.9032 6.89402 13.8079C6.23083 12.4617 5.81385 11.2067 5.65103 10.071C5.63514 9.9439 5.53586 9.84462 5.40878 9.82079C5.38893 9.82079 5.37304 9.81681 5.35319 9.81681L5.36113 9.80889ZM25.3681 17.787C25.2648 17.787 25.1695 17.8387 25.1139 17.926C25.0583 18.0134 25.0543 18.1246 25.098 18.2159C25.7573 19.5542 26.1782 20.8052 26.341 21.9369C26.3609 22.064 26.4562 22.1633 26.5833 22.1871C26.6031 22.1871 26.619 22.1911 26.6389 22.1911C26.7461 22.1911 26.8454 22.1355 26.901 22.0362C27.9216 20.2015 28.4616 18.1127 28.4616 16C28.4616 13.8873 27.9216 11.8064 26.9049 9.9717C26.8533 9.87639 26.7501 9.81681 26.6428 9.81681C26.6269 9.81681 26.6071 9.81682 26.5872 9.82079C26.4602 9.84462 26.3648 9.9439 26.345 10.071C26.1822 11.2028 25.7652 12.4577 25.106 13.7999C25.0623 13.8913 25.0663 14.0025 25.1219 14.0898C25.1775 14.1772 25.2728 14.2288 25.376 14.2288H26.7858C26.8811 14.8126 26.9288 15.4083 26.9288 16C26.9288 16.5917 26.8811 17.1953 26.7818 17.7831H25.372L25.3681 17.787ZM17.7791 6.6478C17.7791 6.75105 17.8307 6.84636 17.9181 6.90196C17.9657 6.93373 18.0213 6.94564 18.0769 6.94564C18.1206 6.94564 18.1683 6.93372 18.208 6.91386C19.5542 6.25067 20.8131 5.82972 21.9528 5.67087C22.0799 5.65499 22.1792 5.55572 22.203 5.43261C22.2269 5.30553 22.1673 5.17846 22.0561 5.11889C20.2134 4.09432 18.1206 3.55026 16 3.55026C13.8794 3.55026 11.7865 4.09432 9.9439 5.11889C9.83271 5.18243 9.77314 5.3095 9.79697 5.43261C9.8208 5.55969 9.92008 5.65499 10.0472 5.67485C11.1869 5.8337 12.4458 6.25465 13.796 6.91784C13.8357 6.93769 13.8833 6.94961 13.927 6.94961C13.9826 6.94961 14.0382 6.93373 14.0859 6.90594C14.1732 6.85034 14.2249 6.75502 14.2249 6.65177V5.23007C14.8086 5.13476 15.4043 5.08712 16 5.08712C16.5957 5.08712 17.1953 5.13477 17.7831 5.23405V6.65575L17.7791 6.6478Z" fill="#B9915B"></path><path d="M48.2859 28.0009C41.5547 28.0009 36.4795 22.8383 36.4795 15.988C36.4795 8.10118 42.4204 3.9751 48.2859 3.9751C53.4683 3.9751 58.4164 7.45783 59.3139 11.6554H54.1236C53.3571 10.0073 51.2564 8.3037 48.2859 8.3037C43.7746 8.3037 41.0821 12.2074 41.0821 15.984C41.0821 20.4358 44.271 23.6644 48.6632 23.6644C53.4961 23.6644 54.9138 19.7567 55.1481 18.9743L55.2633 18.5931H48.5321L50.8195 14.2963H59.6316C59.723 14.8363 59.8143 15.9245 59.8143 16.7703C59.8143 20.265 58.5515 23.1918 56.1687 25.225C54.1037 26.9843 51.2286 27.9969 48.2819 27.9969L48.2859 28.0009Z" fill="#001F35"></path><path d="M73.9836 27.6592V22.7349H62.2566V19.689L70.4452 4.32043H75.5165L67.8242 18.7478H73.9836V13.1087H78.4512V18.7478H80.9808V22.7349H78.4512V27.6592H73.9836Z" fill="#001F35"></path></svg>