<svg width="1364" height="344" viewBox="0 0 1364 344" fill="none" xmlns="http://www.w3.org/2000/svg">
<path d="M1155.7 115.587C1150.94 150.755 1119.28 177.236 1081.94 177.236C1044.59 177.236 1012.93 150.755 1008.17 115.587H970.541V115.804C973.109 142.531 985.89 167.235 1006.22 184.765C1027.28 202.89 1054.14 212.857 1081.93 212.857C1109.71 212.857 1136.57 202.89 1157.64 184.765C1177.96 167.231 1190.74 142.529 1193.32 115.804V115.587H1155.7Z" fill="#2A94A8"/>
<path d="M87.1882 212.856C55.4719 212.856 24.3526 203.951 1.80926 188.439L0 187.245L16.4281 158.828L18.4906 160.33C30.4498 169.108 50.605 180.747 87.5501 180.747C122.378 180.747 142.334 169.778 142.334 150.628C142.334 135.678 128.837 126.845 101.065 123.659L76.3688 120.908C18.1288 113.831 5.91629 85.5768 5.91629 63.1328C5.91629 24.2178 38.483 0.0543205 90.8429 0.0543205C121.926 0.0543205 152.358 8.12692 174.268 22.2268L176.077 23.4033L159.649 51.947L157.623 50.5714C144.524 41.6662 118.108 32.1094 91.1324 32.1094C62.7632 32.1094 44.4354 43.6029 44.4354 61.3771C44.4354 76.0743 56.8288 84.0564 84.6191 87.2963L109.135 90.2647C156.591 96.4368 180.655 116.021 180.655 148.456C180.655 167.932 171.771 184.258 154.963 195.679C138.481 206.937 115.033 212.856 87.1882 212.856ZM666.368 173.778C682.609 155.106 691.599 131.215 691.698 106.464C691.698 47.784 641.527 0.0543205 579.849 0.0543205C518.172 0.0543205 468.001 47.784 468.001 106.464C468.001 165.144 518.172 212.856 579.849 212.856C598.915 212.861 617.691 208.181 634.525 199.227C651.391 208.201 670.207 212.882 689.31 212.856H691.607V177.235H689.346C681.556 177.245 673.81 176.08 666.368 173.778V173.778ZM579.795 177.235C538.761 177.235 505.38 145.488 505.38 106.464C505.38 67.4406 538.761 35.657 579.795 35.657C620.829 35.657 654.21 67.4044 654.21 106.446C654.21 145.488 620.829 177.235 579.795 177.235ZM831.735 212.856C787.335 212.856 735.464 189.326 735.464 122.899V0.0543205H772.608V119.931C772.608 157.235 794.156 178.647 831.735 178.647C869.313 178.647 890.662 157.235 890.662 119.931V0.0543205H928.023V122.899C928.023 151.334 917.946 174.828 898.894 190.81C881.978 205.037 858.114 212.856 831.735 212.856ZM397.874 29.6297C379.908 10.5523 354.687 0.0543205 326.879 0.0543205C266.142 0.0543205 222.05 44.8518 222.05 106.555C222.05 169.145 265.961 212.856 328.797 212.856C362.557 212.856 388.864 203.806 411.552 184.222L413 182.991L396.481 154.429L394.382 156.239C376.939 171.977 354.258 180.644 330.769 180.548C292.087 180.548 265.274 157.343 260.208 119.786H425.248L425.502 117.777C425.972 113.746 426.196 109.69 426.171 105.632C425.936 75.7304 415.858 48.7071 397.874 29.6297ZM260.823 89.6855C266.956 54.481 291.797 32.7429 326.228 32.7429C359.283 32.7429 383.382 55.0059 388.231 89.6855H260.823ZM1275.82 204.639H1238.53V89.957C1238.53 61.5219 1248.59 38.0281 1267.64 22.0458C1284.61 7.83731 1308.46 2.26642e-05 1334.8 2.26642e-05C1343.25 -0.0050575 1351.67 0.843912 1359.95 2.53401L1363.06 3.18561L1344.75 34.8244L1343.28 34.6796C1340.19 34.3719 1337.4 34.209 1334.8 34.209C1297.35 34.209 1275.87 55.6213 1275.87 92.9254L1275.82 204.639ZM1008.05 97.3237C1012.81 62.1554 1044.47 35.6751 1081.81 35.6751C1119.15 35.6751 1150.82 62.1554 1155.57 97.3237H1193.22V97.197C1190.65 70.4721 1177.87 45.7706 1157.55 28.236C1136.48 10.1113 1109.62 0.144108 1081.84 0.144108C1054.05 0.144108 1027.19 10.1113 1006.13 28.236C985.84 45.7842 973.098 70.4859 970.559 97.197V97.4142L1008.05 97.3237Z" fill="#010103"/>
<path d="M1244.65 331.204L1249.5 328.3C1252.9 334.574 1256.84 337.711 1261.31 337.711C1263.22 337.711 1265.01 337.272 1266.69 336.394C1268.37 335.491 1269.65 334.29 1270.53 332.792C1271.4 331.295 1271.84 329.707 1271.84 328.029C1271.84 326.118 1271.2 324.246 1269.91 322.413C1268.12 319.883 1264.87 316.836 1260.15 313.273C1255.4 309.684 1252.44 307.089 1251.28 305.488C1249.26 302.803 1248.26 299.898 1248.26 296.774C1248.26 294.295 1248.85 292.036 1250.04 289.996C1251.23 287.956 1252.89 286.356 1255.03 285.194C1257.2 284.006 1259.55 283.412 1262.08 283.412C1264.77 283.412 1267.27 284.083 1269.6 285.426C1271.95 286.743 1274.42 289.183 1277.03 292.746L1272.38 296.27C1270.24 293.43 1268.41 291.558 1266.89 290.655C1265.39 289.751 1263.75 289.299 1261.97 289.299C1259.67 289.299 1257.78 289.996 1256.31 291.39C1254.87 292.785 1254.14 294.502 1254.14 296.541C1254.14 297.781 1254.4 298.981 1254.92 300.143C1255.43 301.305 1256.38 302.57 1257.74 303.939C1258.49 304.662 1260.95 306.56 1265.1 309.632C1270.04 313.273 1273.42 316.513 1275.25 319.353C1277.08 322.193 1278 325.046 1278 327.912C1278 332.044 1276.43 335.633 1273.28 338.679C1270.15 341.726 1266.34 343.249 1261.85 343.249C1258.39 343.249 1255.25 342.333 1252.44 340.5C1249.62 338.641 1247.03 335.542 1244.65 331.204Z" fill="#010103"/>
<path d="M1156.97 341.816V284.845H1158.21L1196.08 328.455V284.845H1201.7V341.816H1200.42L1162.85 298.749V341.816H1156.97Z" fill="#010103"/>
<path d="M1080.24 283.412C1088.86 283.412 1096.08 286.291 1101.89 292.049C1107.7 297.807 1110.6 304.894 1110.6 313.311C1110.6 321.651 1107.7 328.726 1101.89 334.535C1096.1 340.345 1089.04 343.249 1080.7 343.249C1072.26 343.249 1065.13 340.358 1059.32 334.574C1053.51 328.79 1050.61 321.793 1050.61 313.582C1050.61 308.109 1051.93 303.035 1054.56 298.362C1057.22 293.688 1060.83 290.035 1065.4 287.401C1069.97 284.742 1074.92 283.412 1080.24 283.412ZM1080.51 288.989C1076.3 288.989 1072.31 290.087 1068.54 292.281C1064.77 294.476 1061.83 297.432 1059.71 301.15C1057.59 304.868 1056.54 309.012 1056.54 313.582C1056.54 320.347 1058.87 326.066 1063.55 330.74C1068.24 335.387 1073.9 337.711 1080.51 337.711C1084.92 337.711 1089 336.64 1092.75 334.496C1096.52 332.353 1099.45 329.423 1101.54 325.705C1103.66 321.987 1104.71 317.856 1104.71 313.311C1104.71 308.793 1103.66 304.713 1101.54 301.073C1099.45 297.406 1096.49 294.476 1092.67 292.281C1088.85 290.087 1084.79 288.989 1080.51 288.989Z" fill="#010103"/>
<path d="M999.404 284.845H1005.1V341.816H999.404V284.845Z" fill="#010103"/>
<path d="M925.892 290.384V284.845H957.146V290.384H944.443V341.816H938.634V290.384H925.892Z" fill="#010103"/>
<path d="M844.864 284.845H850.558V319.237C850.558 323.317 850.635 325.86 850.79 326.867C851.074 329.113 851.732 330.998 852.765 332.521C853.798 334.019 855.386 335.284 857.529 336.317C859.672 337.324 861.828 337.827 863.997 337.827C865.882 337.827 867.689 337.427 869.419 336.627C871.149 335.826 872.595 334.716 873.757 333.296C874.918 331.876 875.77 330.159 876.313 328.145C876.7 326.699 876.894 323.73 876.894 319.237V284.845H882.587V319.237C882.587 324.324 882.083 328.442 881.076 331.592C880.095 334.716 878.107 337.44 875.112 339.764C872.143 342.088 868.541 343.249 864.307 343.249C859.711 343.249 855.773 342.152 852.494 339.957C849.215 337.763 847.02 334.858 845.91 331.243C845.213 329.023 844.864 325.021 844.864 319.237V284.845Z" fill="#010103"/>
<path d="M773.132 284.845H778.864V336.317H800.746V341.816H773.132V284.845Z" fill="#010103"/>
<path d="M696.443 283.412C705.066 283.412 712.283 286.291 718.092 292.049C723.902 297.807 726.807 304.894 726.807 313.311C726.807 321.651 723.902 328.726 718.092 334.535C712.309 340.345 705.247 343.249 696.907 343.249C688.464 343.249 681.338 340.358 675.529 334.574C669.719 328.79 666.814 321.793 666.814 313.582C666.814 308.109 668.131 303.035 670.765 298.362C673.424 293.688 677.039 290.035 681.609 287.401C686.179 284.742 691.124 283.412 696.443 283.412ZM696.714 288.989C692.505 288.989 688.516 290.087 684.746 292.281C680.977 294.476 678.033 297.432 675.916 301.15C673.799 304.868 672.74 309.012 672.74 313.582C672.74 320.347 675.077 326.066 679.75 330.74C684.449 335.387 690.104 337.711 696.714 337.711C701.129 337.711 705.208 336.64 708.952 334.496C712.722 332.353 715.653 329.423 717.744 325.705C719.861 321.987 720.92 317.856 720.92 313.311C720.92 308.793 719.861 304.713 717.744 301.073C715.653 297.406 712.696 294.476 708.875 292.281C705.053 290.087 701 288.989 696.714 288.989Z" fill="#010103"/>
<path d="M589.002 331.204L593.843 328.3C597.251 334.574 601.189 337.711 605.656 337.711C607.566 337.711 609.361 337.272 611.039 336.394C612.717 335.491 613.995 334.29 614.873 332.792C615.751 331.295 616.19 329.707 616.19 328.029C616.19 326.118 615.545 324.246 614.254 322.413C612.472 319.883 609.219 316.836 604.494 313.273C599.743 309.684 596.787 307.089 595.625 305.488C593.611 302.803 592.604 299.898 592.604 296.774C592.604 294.295 593.198 292.036 594.385 289.996C595.573 287.956 597.238 286.356 599.381 285.194C601.55 284.006 603.9 283.412 606.43 283.412C609.116 283.412 611.62 284.083 613.944 285.426C616.293 286.743 618.772 289.183 621.38 292.746L616.732 296.27C614.589 293.43 612.756 291.558 611.233 290.655C609.735 289.751 608.096 289.299 606.314 289.299C604.016 289.299 602.131 289.996 600.66 291.39C599.214 292.785 598.491 294.502 598.491 296.541C598.491 297.781 598.749 298.981 599.265 300.143C599.782 301.305 600.724 302.57 602.093 303.939C602.841 304.662 605.294 306.56 609.451 309.632C614.383 313.273 617.765 316.513 619.598 319.353C621.432 322.193 622.348 325.046 622.348 327.912C622.348 332.044 620.773 335.633 617.623 338.679C614.499 341.726 610.691 343.249 606.198 343.249C602.738 343.249 599.601 342.333 596.787 340.5C593.972 338.641 591.377 335.542 589.002 331.204Z" fill="#010103"/>
<path d="M466.452 284.845H472.184V336.317H494.066V341.816H466.452V284.845Z" fill="#010103"/>
<path d="M396.115 284.845L422.684 341.816H416.564L407.618 323.071H383.063L374.155 341.816H367.804L394.721 284.845H396.115ZM395.418 296.929L385.619 317.572H405.1L395.418 296.929Z" fill="#010103"/>
<path d="M298.512 290.384V284.845H329.767V290.384H317.063V341.816H311.254V290.384H298.512Z" fill="#010103"/>
<path d="M250.482 284.845H256.176V341.816H250.482V284.845Z" fill="#010103"/>
<path d="M202.182 294.411L197.767 298.594C194.591 295.47 191.105 293.107 187.31 291.507C183.54 289.88 179.861 289.067 176.272 289.067C171.805 289.067 167.545 290.164 163.491 292.359C159.463 294.553 156.339 297.536 154.118 301.305C151.898 305.049 150.788 309.012 150.788 313.195C150.788 317.481 151.937 321.561 154.235 325.434C156.532 329.281 159.708 332.315 163.762 334.535C167.816 336.73 172.257 337.827 177.085 337.827C182.946 337.827 187.903 336.175 191.957 332.87C196.011 329.565 198.412 325.279 199.161 320.012H180.997V314.512H205.551C205.5 323.317 202.879 330.314 197.689 335.503C192.525 340.667 185.606 343.249 176.93 343.249C166.396 343.249 158.056 339.66 151.911 332.483C147.186 326.957 144.823 320.567 144.823 313.311C144.823 307.915 146.179 302.893 148.89 298.246C151.601 293.598 155.319 289.97 160.044 287.363C164.769 284.729 170.114 283.412 176.078 283.412C180.906 283.412 185.451 284.29 189.711 286.046C193.971 287.776 198.128 290.564 202.182 294.411Z" fill="#010103"/>
<path d="M93.54 284.845H99.2333V341.816H93.54V284.845Z" fill="#010103"/>
<path d="M0.429688 341.816V284.845H12.2422C20.7627 284.845 26.9466 285.529 30.7937 286.898C36.3191 288.834 40.631 292.191 43.7294 296.968C46.8536 301.744 48.4157 307.437 48.4157 314.047C48.4157 319.754 47.1763 324.775 44.6976 329.113C42.2448 333.451 39.0431 336.653 35.0927 338.718C31.1681 340.784 25.6556 341.816 18.5551 341.816H0.429688ZM5.89056 336.433H12.4746C20.3496 336.433 25.8105 335.942 28.8572 334.961C33.1433 333.567 36.5128 331.063 38.9657 327.448C41.4185 323.807 42.645 319.366 42.645 314.125C42.645 308.625 41.3153 303.926 38.6558 300.027C35.9964 296.128 32.2913 293.456 27.5404 292.01C23.9773 290.926 18.1033 290.384 9.91844 290.384H5.89056V336.433Z" fill="#010103"/>
</svg>
